<?xml version="1.0" encoding="utf-8"?><svg xml:space="preserve" viewBox="0 0 100 100" y="0" x="0" xmlns="http://www.w3.org/2000/svg" id="圖層_1" version="1.1" width="200px" height="200px" xmlns:xlink="http://www.w3.org/1999/xlink" style="width:100%;height:100%;background-size:initial;background-repeat-y:initial;background-repeat-x:initial;background-position-y:initial;background-position-x:initial;background-origin:initial;background-color:initial;background-clip:initial;background-attachment:initial;animation-play-state:paused" ><g class="ldl-scale" style="transform-origin:50% 50%;transform:rotate(0deg) scale(0.8, 0.8);animation-play-state:paused" ><path fill="#e0e0e0" d="M84.885 90h-69.77A5.115 5.115 0 0 1 10 84.885v-69.77A5.115 5.115 0 0 1 15.115 10h69.77A5.115 5.115 0 0 1 90 15.115v69.77A5.115 5.115 0 0 1 84.885 90z" style="fill:rgb(0, 203, 169);animation-play-state:paused" ></path>
<g style="animation-play-state:paused" ><path d="M18.068 18.195h63.864v27.552H18.068z" fill="#f8b26a" style="fill:rgb(1, 255, 212);animation-play-state:paused" ></path>
<path d="M18.068 45.747h63.864v27.552H18.068z" fill="#f47e60" style="fill:rgb(0, 125, 104);animation-play-state:paused" ></path>
<path fill="#f5e6c8" d="M50 36.28a9.467 9.467 0 0 0-9.467 9.467h18.933c.001-5.228-4.238-9.467-9.466-9.467z" style="fill:rgb(224, 224, 224);animation-play-state:paused" ></path>
<path fill="#f5e6c8" d="M42.26 50.621h15.48c.154-.219.297-.446.433-.678H41.827c.136.232.279.459.433.678z" style="fill:rgb(224, 224, 224);animation-play-state:paused" ></path>
<path fill="#f5e6c8" d="M59.467 46.312H40.533c0 .467.045.922.11 1.37h18.713c.066-.448.111-.903.111-1.37z" style="fill:rgb(224, 224, 224);animation-play-state:paused" ></path>
<path fill="#f5e6c8" d="M44.205 52.091h11.59c.274-.213.538-.437.786-.678H43.419c.248.241.512.465.786.678z" style="fill:rgb(224, 224, 224);animation-play-state:paused" ></path>
<path fill="#f5e6c8" d="M50 53.518a9.416 9.416 0 0 0 3.389-.636H46.61a9.425 9.425 0 0 0 3.39.636z" style="fill:rgb(224, 224, 224);animation-play-state:paused" ></path>
<path fill="#f5e6c8" d="M40.936 48.474c.069.231.152.455.239.678h17.65c.086-.223.169-.447.239-.678H40.936z" style="fill:rgb(224, 224, 224);animation-play-state:paused" ></path>
<path fill="#f47e60" clip-rule="evenodd" fill-rule="evenodd" d="M35.242 32.6c0-.864-.617-1.584-1.434-1.744a2.439 2.439 0 0 0-4.71-1.096 1.574 1.574 0 0 0-1.979 1.402 1.423 1.423 0 0 0-1.021 2.62l-.001.017a.931.931 0 0 0 1.659.579l.03.002h1.134a1.476 1.476 0 0 0 1.91 0h.023a1.966 1.966 0 0 0 3.014-.048 1.78 1.78 0 0 0 1.375-1.732z" style="fill:rgb(0, 125, 104);animation-play-state:paused" ></path>
<path fill="#f47e60" clip-rule="evenodd" fill-rule="evenodd" d="M74.935 26.263a2.051 2.051 0 0 0-3.765-1.582 1.367 1.367 0 0 0-1.75 1.58 1.446 1.446 0 0 0-.971.624c-.013-.003-.025-.009-.038-.011.043-.149.064-.306.053-.47a1.067 1.067 0 0 0-.245-.582c-.585-.729-1.061-.825-1.494-.787-.31-.7-1.056-1.194-1.926-1.194-1.019 0-1.867.677-2.045 1.57a1.335 1.335 0 0 0-.454.193 1.805 1.805 0 0 0-.374-.107 2.597 2.597 0 0 0-4.769-2.005 1.731 1.731 0 0 0-2.216 2.001 1.838 1.838 0 0 0 .29 3.655h6.384c.06 0 .119-.003.177-.009.112.015.218.009.322-.004v.013h12.577a1.452 1.452 0 0 0 .244-2.885z" style="fill:rgb(0, 125, 104);animation-play-state:paused" ></path></g>
<metadata xmlns:d="https://loading.io/stock/" style="animation-play-state:paused" ><d:name style="animation-play-state:paused" >photo</d:name>


<d:tags style="animation-play-state:paused" >film,camera,dslr,landscape,scene,picture,image,sunset,sky,polaroid,instant camera,photo,books</d:tags>


<d:license style="animation-play-state:paused" >by</d:license>


<d:slug style="animation-play-state:paused" >5l1gmq</d:slug></metadata></g><!-- generated by https://loading.io/ --></svg>